<svg width="99" height="128" viewBox="0 0 99 128" fill="none" xmlns="http://www.w3.org/2000/svg">
<path d="M0.0532973 73.6463C1.66659 73.387 3.25385 72.9859 4.79665 72.4478C5.36958 72.3147 5.32961 71.9817 5.30296 71.5556C4.82013 67.7682 5.08265 63.923 6.07575 60.2362C6.2184 59.8183 6.23641 59.368 6.12759 58.9401C6.01877 58.5121 5.78782 58.125 5.46285 57.8259C4.46354 56.7605 3.53087 55.6286 2.53157 54.5766C2.17579 54.2587 1.94934 53.8212 1.89529 53.3473C1.84124 52.8734 1.96337 52.3962 2.23844 52.0064C3.47682 49.9371 4.99197 48.0465 6.74195 46.3867C6.95079 46.146 7.23906 45.9881 7.55442 45.9417C7.86978 45.8953 8.19134 45.9634 8.46075 46.1337C10.033 46.8927 11.6452 47.5453 13.2174 48.2777C13.4669 48.441 13.7586 48.5279 14.0568 48.5279C14.3551 48.5279 14.6468 48.441 14.8963 48.2777C18.1095 46.1903 21.7535 44.8564 25.5555 44.3758C26.4215 44.2294 26.5814 43.8565 26.6081 43.0442C26.6081 41.5926 26.2883 39.635 27.0611 38.836C27.8339 38.037 29.9257 38.5164 31.418 38.583C33.5765 38.6895 35.7217 38.9559 37.8669 39.2089C38.2884 39.2753 38.6917 39.4278 39.0516 39.6569C39.4116 39.886 39.7203 40.1868 39.9587 40.5406C40.4058 41.0786 40.8196 41.6435 41.1979 42.2318C42.5303 44.4291 44.1825 46.2269 46.9805 46.3867C47.0822 46.3732 47.1852 46.3732 47.2869 46.3867C50.2715 47.2257 50.8045 48.2777 49.9517 51.3139C49.6853 52.2328 49.0324 51.8866 48.6193 51.78C46.0762 51.0392 43.4565 50.5924 40.8115 50.4483C33.6698 50.1021 24.4629 52.113 21.012 60.4094C18.7602 65.8693 19.3465 71.3958 21.3051 76.7891C23.9221 83.6476 28.1867 89.7575 33.7231 94.5805C39.5359 100.029 46.4843 104.122 54.0689 106.566C60.6376 108.616 67.3129 109.362 73.935 107.018C80.144 104.808 83.6482 100.253 84.6741 93.7015C84.9836 91.0313 84.8258 88.3276 84.2078 85.7114C84.08 85.0291 84.1398 84.3249 84.381 83.6739C84.9007 82.2357 85.5269 80.8241 86.1398 79.3992C86.4329 78.7334 86.7261 78.2806 87.6854 78.6668C89.3376 79.3326 91.083 79.7588 92.7618 80.3447C93.1708 80.4656 93.5501 80.67 93.8758 80.9451C94.2015 81.2202 94.4664 81.5599 94.6538 81.9427C96.2643 85.139 97.5069 88.5075 98.3579 91.9837C98.5311 92.796 98.2513 92.9159 97.6784 93.089C96.9396 93.3835 96.1713 93.5978 95.3867 93.7282C93.468 93.848 93.1749 94.9666 93.428 96.5247C93.9157 99.9069 93.6194 103.356 92.562 106.606C92.4542 106.913 92.4345 107.244 92.5051 107.561C92.5758 107.879 92.7339 108.171 92.9617 108.403C94.1209 109.668 95.1735 111.067 96.3327 112.265C96.6088 112.503 96.7873 112.834 96.8341 113.196C96.8808 113.557 96.7924 113.923 96.5858 114.223C95.3858 116.484 93.8138 118.528 91.9357 120.269C91.7416 120.497 91.4723 120.647 91.1765 120.694C90.8808 120.74 90.5782 120.679 90.3235 120.522C88.8446 119.829 87.3256 119.19 85.8333 118.537C85.4939 118.325 85.1014 118.212 84.7008 118.212C84.3002 118.212 83.9077 118.325 83.5682 118.537C80.4491 120.513 76.9325 121.777 73.2688 122.24C72.2029 122.426 71.8698 122.852 71.9364 123.918C72.0296 125.249 71.9364 126.581 71.9364 127.979H65.2744C65.0537 127.864 64.8148 127.787 64.5682 127.753C62.8752 127.966 61.1592 127.614 59.687 126.752C58.2147 125.89 57.0688 124.566 56.4272 122.985C56.1616 122.418 55.7664 121.922 55.2734 121.535C54.7804 121.149 54.2035 120.884 53.5892 120.761C49.4929 119.762 45.5557 118.198 41.8907 116.114C39.3991 114.636 37.1873 114.343 34.8157 115.994C34.4809 116.254 34.0656 116.388 33.642 116.373C33.2184 116.359 32.8134 116.196 32.4973 115.914C29.3928 113.73 26.2883 111.533 23.317 109.162C22.623 108.761 22.1025 108.117 21.8563 107.354C21.6102 106.592 21.6559 105.765 21.9846 105.034C22.3045 104.27 22.3615 103.421 22.1469 102.621C21.9323 101.821 21.4582 101.115 20.7988 100.613C18.0097 98.0841 15.6199 95.1478 13.7104 91.9038C12.9615 90.4547 11.8896 89.1968 10.5775 88.2271C9.26541 87.2574 7.74804 86.6018 6.14237 86.3107C5.56688 86.1781 5.03426 85.9022 4.594 85.5087C4.15374 85.1152 3.82012 84.617 3.62414 84.0601C2.29173 81.2236 1.57223 78.1608 0 75.4441L0.0532973 73.6463Z" fill="#C6211C"/>
<path d="M55.9877 39.1424C56.2009 37.7041 55.5746 35.6667 55.6679 33.6159C55.6679 32.6437 55.015 32.5905 54.4687 32.3641C51.9236 31.3736 49.6607 29.7737 47.8789 27.7049C46.097 25.636 44.8506 23.1615 44.2492 20.4987C43.5541 17.4427 43.7293 14.2532 44.7548 11.2916C45.7803 8.32996 47.6152 5.71456 50.0517 3.74173C52.4881 1.76889 55.4286 0.517481 58.5401 0.129251C61.6516 -0.25898 64.8098 0.231503 67.6567 1.54512C70.5036 2.85874 72.9255 4.94298 74.6481 7.56173C76.3706 10.1805 77.3249 13.2291 77.4029 16.3621C77.4808 19.4951 76.6793 22.5873 75.0892 25.2884C73.499 27.9895 71.1837 30.1915 68.4057 31.645C67.8036 31.8656 67.2915 32.2792 66.9493 32.8212C66.607 33.3632 66.4539 34.0031 66.5137 34.6413C66.4345 40.7917 65.8463 46.9251 64.7549 52.9786C62.9846 64.6258 60.1343 76.0833 56.2408 87.2029C54.9084 91.198 53.2296 95.1931 51.7107 99.1881C51.4842 99.7874 51.2177 100.2 50.3783 99.7341C48.6639 98.7576 46.9096 97.8431 45.1153 96.9909C44.3958 96.6579 44.9154 96.365 45.0087 96.072C46.3411 92.0769 47.6735 87.9886 48.8194 83.9137C51.0877 76.3426 52.846 68.6282 54.0823 60.8222C55.217 53.6482 55.8536 46.4043 55.9877 39.1424ZM69.858 17.063C69.9051 14.6197 68.9903 12.2557 67.3107 10.4799C65.6311 8.70401 63.3209 7.65837 60.8776 7.56805C56.001 7.67459 51.3243 11.1237 51.3243 16.6901C51.3297 19.1577 52.292 21.5271 54.0089 23.3002C55.7259 25.0734 58.0638 26.1122 60.5312 26.1984C62.9656 26.1753 65.2966 25.2112 67.0354 23.5081C68.7742 21.805 69.7858 19.4952 69.858 17.063Z" fill="#2D4798"/>
<path d="M97.6518 55.1492C97.9049 62.8863 92.8685 67.8268 86.0332 69.6779C85.4016 69.785 84.8143 70.0718 84.3417 70.5041C83.869 70.9363 83.5311 71.4956 83.3684 72.1149C80.7382 79.8615 77.4392 87.365 73.5087 94.5405C72.083 97.2039 70.4308 99.7607 68.9119 102.371C68.8034 102.635 68.6189 102.861 68.3816 103.02C68.1443 103.179 67.8651 103.263 67.5795 103.263C65.2255 103.31 62.8711 103.203 60.5311 102.943C59.1987 102.757 60.1713 102.011 60.3579 101.678C62.4647 98.0837 64.3902 94.3858 66.1272 90.5987C69.4316 83.7952 72.0644 76.6859 73.9883 69.3716C74.2218 68.8653 74.254 68.2892 74.0783 67.76C73.9027 67.2309 73.5323 66.7882 73.0423 66.5218C70.5012 64.5285 68.8148 61.6431 68.3256 58.4518C67.1798 52.9919 68.2057 48.0646 72.4028 44.216C74.3874 42.3319 76.8464 41.0214 79.5177 40.4244C82.1889 39.8273 84.9722 39.9661 87.5708 40.8259C90.1693 41.6857 92.4856 43.2342 94.2727 45.3065C96.0599 47.3787 97.2508 49.8968 97.7184 52.5924C97.7831 53.4447 97.7607 54.3014 97.6518 55.1492ZM90.9898 55.1492C91.0047 53.0179 90.205 50.9613 88.7538 49.3995C87.3026 47.8378 85.3096 46.8887 83.1819 46.7462C78.4652 46.7462 74.3614 49.9157 74.3614 54.7364C74.3239 56.9455 75.1463 59.0829 76.6552 60.6978C78.164 62.3126 80.2413 63.2787 82.4491 63.3923C86.5529 63.4855 91.2962 60.1031 91.0431 55.1359L90.9898 55.1492Z" fill="#2D4798"/>
<path d="M46.6341 66.9879C46.5811 68.6603 46.0648 70.2852 45.1426 71.6818C44.2205 73.0783 42.9287 74.1917 41.4111 74.8982C41.1353 74.9908 40.8975 75.1711 40.7339 75.4116C40.5703 75.6521 40.4899 75.9394 40.5051 76.2298C40.2653 79.3194 39.9854 82.4089 39.6257 85.5517C39.4125 87.416 39.0394 89.267 38.733 91.1181C38.5998 91.8638 38.3199 91.8239 37.747 91.4111C36.5242 90.4505 35.3915 89.3808 34.3627 88.215C34.0731 87.8967 33.8602 87.5165 33.7401 87.1034C33.62 86.6902 33.596 86.2551 33.6699 85.8313C33.9206 82.7308 34.0051 79.619 33.923 76.5095C33.923 75.5906 33.3901 75.4974 32.8171 75.1778C31.0974 74.4534 29.6314 73.2354 28.6044 71.678C27.5775 70.1206 27.0357 68.2938 27.0478 66.4286C27.0182 64.7004 27.4482 62.9954 28.294 61.4878C29.1397 59.9801 30.3708 58.7239 31.8614 57.8477C33.352 56.9714 35.0488 56.5064 36.7781 56.5002C38.5074 56.4941 40.2074 56.9469 41.7042 57.8126C44.9153 59.6769 46.6208 62.5401 46.6341 66.9879ZM37.0009 60.9554C36.2946 60.9139 35.5872 61.016 34.9214 61.2554C34.2557 61.4947 33.6454 61.8665 33.1273 62.3481C32.6093 62.8298 32.1943 63.4113 31.9074 64.0577C31.6205 64.7041 31.4677 65.4019 31.4581 66.109C31.5513 69.5448 33.8164 71.8353 36.7211 71.7554C37.4515 71.7788 38.1792 71.6541 38.8601 71.3887C39.541 71.1233 40.1611 70.7228 40.6828 70.2112C41.2045 69.6997 41.6172 69.0879 41.8958 68.4126C42.1744 67.7373 42.3132 67.0125 42.3038 66.2821C42.322 65.5799 42.1975 64.8813 41.9377 64.2286C41.678 63.5759 41.2885 62.9826 40.7928 62.4846C40.2971 61.9867 39.7054 61.5944 39.0536 61.3316C38.4019 61.0687 37.7035 60.9407 37.0009 60.9554Z" fill="#2D4798"/>
</svg>
